#!OML:ASF H:\Terrain\Patient Classification 1\Terrain2\Thursday\justin.ASF
:FULLY-SPECIFIED
:DEGREES
1676
root 8.01927 17.83 29.3657 -177.952 -1.69458 -177.653
lowerback 6.8828 -0.479886 -1.79056
upperback 3.16604 -1.02886 3.68399
thorax -0.490847 -0.693688 4.89683
lowerneck -13.6684 -4.05048 -9.07567
upperneck 36.4874 -0.748437 3.31074
head 15.1636 0.090621 3.20411
rclavicle 9.44227e-015 2.8625e-014
rhumerus -33.9837 -22.4895 -71.0694
rradius 20.9572
rwrist -2.30436
rhand -20.8896 17.6603
rfingers 7.12502
rthumb 5.4809 -12.2489
lclavicle 9.44227e-015 2.8625e-014
lhumerus -32.6153 8.71183 87.1601
lradius 25.4545
lwrist -0.235933
lhand -21.6055 19.6388
lfingers 7.12502
lthumb 4.7897 49.5647
rfemur -36.981 -8.58959 23.9095
rtibia 34.4024
rfoot -12.1428 13.4058
rtoes -40.0299
lfemur 18.4863 1.60329 -19.114
ltibia 3.81667e-014
lfoot -7.79679 -14.7039
ltoes 9.39134
1677
root 8.03102 17.8336 29.2864 -177.862 -1.83359 -177.612
lowerback 6.56835 -0.324553 -0.948311
upperback 3.6391 -0.805094 3.21392
thorax 0.129546 -0.590731 3.90021
lowerneck -14.6918 -4.2221 -8.39003
upperneck 36.6031 -1.30764 3.52007
head 15.486 -0.0594112 3.0835
rclavicle 1.85864e-014 -1.74931e-014
rhumerus -33.3955 -23.7108 -71.7356
rradius 21.1224
rwrist -2.25242
rhand -20.9118 17.4427
rfingers 7.12502
rthumb 5.45947 -12.4669
lclavicle 1.85864e-014 -1.74931e-014
lhumerus -31.6785 7.19644 87.2961
lradius 25.6476
lwrist 0.402737
lhand -19.9273 18.2969
lfingers 7.12502
lthumb 6.41003 48.1799
rfemur -37.1005 -8.68133 23.974
rtibia 34.7961
rfoot -11.6596 13.7231
rtoes -39.7964
lfemur 18.635 1.38106 -19.0405
ltibia 6.99722e-014
lfoot -7.52798 -14.6694
ltoes 9.05291
1678
root 8.04225 17.8368 29.2013 -177.811 -1.8165 -177.791
lowerback 6.99991 -0.281916 -1.16915
upperback 3.50185 -0.752755 3.30498
thorax -0.250766 -0.560849 4.12584
lowerneck -15.0014 -4.26618 -8.50973
upperneck 36.8846 -1.27526 3.55752
head 15.7022 -0.0522436 3.1439
rclavicle 1.09332e-015 -1.23246e-014
rhumerus -33.313 -23.1169 -71.9218
rradius 21.4613
rwrist -2.24622
rhand -21.8538 15.5384
rfingers 7.12502
rthumb 4.54997 -14.3927
lclavicle 1.09332e-015 -1.23246e-014
lhumerus -31.9095 6.48928 88.1299
lradius 26.1229
lwrist 1.82536
lhand -23.1123 20.2671
lfingers 7.12502
lthumb 3.33461 50.2208
rfemur -37.1006 -8.86955 23.8268
rtibia 35.1301
rfoot -11.5801 14.0274
rtoes -39.6252
lfemur 18.8658 1.30978 -19.2131
ltibia 9.54166e-015
lfoot -6.92898 -14.6775
ltoes 10.0185
1679
root 8.06076 17.8522 29.1217 -177.738 -1.89795 -177.809
lowerback 7.14583 -0.349238 -1.16477
upperback 3.38248 -0.832863 3.35007
thorax -0.447625 -0.59467 4.18002
lowerneck -14.549 -4.2282 -8.48441
upperneck 36.5558 -1.25492 3.42047
head 15.4278 -0.060367 3.06396
rclavicle 4.07509e-015 2.3059e-014
rhumerus -33.3505 -22.8299 -72.0371
rradius 21.6663
rwrist -2.2626
rhand -22.2306 15.0208
rfingers 7.12502
rthumb 4.18611 -14.9178
lclavicle 4.07509e-015 2.3059e-014
lhumerus -32.2132 5.52405 88.9253
lradius 26.9389
lwrist 3.7266
lhand -24.7394 23.7808
lfingers 7.12502
lthumb 1.76328 53.7533
rfemur -37.0437 -8.95193 23.817
rtibia 35.3361
rfoot -11.341 14.3887
rtoes -39.3963
lfemur 19.0044 1.13353 -19.1545
ltibia 3.18055e-014
lfoot -6.13751 -14.623
ltoes 9.25023
1680
root 8.08033 17.8689 29.0407 -177.778 -2.024 -177.761
lowerback 7.22498 -0.482431 -1.14392
upperback 3.39807 -1.01972 3.46946
thorax -0.457924 -0.69403 4.30793
lowerneck -14.1076 -4.15382 -8.47644
upperneck 36.1717 -1.14864 3.16898
head 15.127 -0.0554164 2.9505
rclavicle -6.95746e-016 -4.05521e-014
rhumerus -33.1547 -22.0179 -72.3021
rradius 21.8791
rwrist -2.84009
rhand -22.2737 15.1934
rfingers 7.12502
rthumb 4.14446 -14.7461
lclavicle -6.95746e-016 -4.05521e-014
lhumerus -32.3584 5.63205 89.183
lradius 27.322
lwrist 3.75899
lhand -24.1919 23.8234
lfingers 7.12502
lthumb 2.29203 53.7908
rfemur -36.8625 -8.85196 23.7954
rtibia 35.523
rfoot -10.8107 15.074
rtoes -38.7909
lfemur 19.2856 0.911918 -19.0157
ltibia 2.54444e-014
lfoot -5.52641 -14.4844
ltoes 3.29193
1681
root 8.1232 17.8733 28.9439 -177.957 -1.8796 -177.011
lowerback 7.44093 -0.516944 -0.812305
upperback 3.40097 -1.07597 3.87594
thorax -0.566713 -0.736935 4.55398
lowerneck -13.9809 -4.06801 -8.65374
upperneck 36.2187 -0.952232 3.18089
head 15.1097 0.0115687 3.02228
rclavicle -3.08116e-015 4.45278e-014
rhumerus -33.0744 -20.9545 -72.6098
rradius 22.2467
rwrist -3.35689
rhand -22.2565 14.9242
rfingers 7.12502
rthumb 4.16104 -15.0149
lclavicle -3.08116e-015 4.45278e-014
lhumerus -32.6415 6.65818 88.8876
lradius 27.0652
lwrist 2.34043
lhand -22.0797 20.5347
lfingers 7.12502
lthumb 4.33183 50.4704
rfemur -36.4063 -7.35755 24.2837
rtibia 35.7038
rfoot -9.77577 15.24
rtoes -38.3792
lfemur 19.818 0.945809 -17.9872
ltibia -9.54166e-015
lfoot -5.10103 -14.4299
ltoes 8.46543
1682
root 8.14333 17.8766 28.8471 -177.701 -1.74801 -177.503
lowerback 7.41555 -0.514985 -1.26122
upperback 3.31086 -1.07731 3.73011
thorax -0.640702 -0.727605 4.65744
lowerneck -14.2407 -3.94447 -8.55997
upperneck 36.3123 -0.798428 3.24766
head 15.2 0.0944679 3.06518
rclavicle 1.09332e-015 -3.81667e-014
rhumerus -33.1299 -20.724 -72.8212
rradius 22.6924
rwrist -3.54971
rhand -21.8731 14.9208
rfingers 7.12502
rthumb 4.5313 -15.0108
lclavicle 1.09332e-015 -3.81667e-014
lhumerus -32.9012 6.54264 88.863
lradius 27.215
lwrist 2.00977
lhand -20.5397 19.464
lfingers 7.12502
lthumb 5.81878 49.3641
rfemur -36.4996 -6.70002 23.5842
rtibia 35.9326
rfoot -9.44303 16.1975
rtoes -38.2585
lfemur 19.8915 0.980815 -18.4702
ltibia 4.45278e-014
lfoot -4.89346 -14.3785
ltoes 6.85143
1683
root 8.15479 17.885 28.7551 -177.464 -1.7546 -178.382
lowerback 7.44604 -0.511802 -1.93977
upperback 3.31265 -1.09748 3.47462
thorax -0.646441 -0.731641 4.77839
lowerneck -14.7552 -3.8631 -8.28588
upperneck 36.4101 -0.676117 3.06401
head 15.3528 0.14421 2.96444
rclavicle 1.07344e-014 2.14687e-014
rhumerus -32.906 -20.621 -73.0123
rradius 23.0218
rwrist -4.14079
rhand -21.4843 15.3473
rfingers 7.12502
rthumb 4.90674 -14.5759
lclavicle 1.07344e-014 2.14687e-014
lhumerus -32.892 5.82246 89.2842
lradius 27.7675
lwrist 2.36498
lhand -20.8257 20.1623
lfingers 7.12502
lthumb 5.54266 50.0698
rfemur -36.6533 -6.69629 22.5862
rtibia 36.2443
rfoot -9.33562 17.6363
rtoes -38.1256
lfemur 19.7749 0.865364 -19.388
ltibia 5.08889e-014
lfoot -3.69005 -14.5153
ltoes 8.7016
1684
root 8.17936 17.8973 28.6651 -177.583 -2.12416 -177.799
lowerback 7.69229 -0.586972 -1.14852
upperback 3.42003 -1.17745 3.61547
thorax -0.676921 -0.780742 4.48615
lowerneck -15.0126 -4.06711 -8.31266
upperneck 36.4064 -0.970552 2.99483
head 15.436 -0.00852602 2.88723
rclavicle 1.78906e-015 4.45278e-014
rhumerus -32.5947 -20.6114 -73.2701
rradius 23.2581
rwrist -4.69373
rhand -21.5532 15.2261
rfingers 7.12502
rthumb 4.84025 -14.6986
lclavicle 1.78906e-015 4.45278e-014
lhumerus -32.8438 4.60352 89.9597
lradius 28.4411
lwrist 3.78908
lhand -23.0734 21.5514
lfingers 7.12502
lthumb 3.3722 51.5045
rfemur -36.3563 -6.98678 23.3147
rtibia 36.4918
rfoot -9.0347 18.9085
rtoes -37.9533
lfemur 20.0071 0.398052 -18.5823
ltibia 3.18055e-015
lfoot -2.00205 -14.6071
ltoes 18.6212
1685
root 8.19258 17.9076 28.5738 -177.245 -2.44989 -178.292
lowerback 7.3591 -0.519246 -1.01982
upperback 3.6169 -1.07554 3.19412
thorax -0.309862 -0.726164 3.95424
lowerneck -15.839 -4.13681 -8.00165
upperneck 36.3212 -1.2699 3.10535
head 15.6021 -0.112696 2.82024
rclavicle 8.34896e-015 1.43125e-014
rhumerus -32.183 -21.5668 -73.643
rradius 23.5859
rwrist -4.80814
rhand -21.5625 15.0925
rfingers 7.12502
rthumb 4.83124 -14.8324
lclavicle 8.34896e-015 1.43125e-014
lhumerus -32.3212 2.44599 90.5792
lradius 28.9299
lwrist 5.38429
lhand -24.7308 23.0969
lfingers 7.12502
lthumb 1.7716 53.0693
rfemur -36.5901 -8.01221 23.135
rtibia 36.6863
rfoot -9.2478 20.2263
rtoes -37.6484
lfemur 19.9405 -0.0246088 -19.0649
ltibia 9.54166e-015
lfoot -1.3978 -14.4477
ltoes 16.8706
